<?xml version="1.0" encoding="UTF-8"?> <svg xmlns="http://www.w3.org/2000/svg" width="237" height="40" viewBox="0 0 237 40" fill="none"> <path fill-rule="evenodd" clip-rule="evenodd" d="M16.6855 2.60198L14.3886 5.20395V15.0814V24.959L16.7244 23.7934L19.0602 22.6277V11.3138C19.0602 5.09116 19.0427 0 19.0214 0C19 0 17.9489 1.17085 16.6855 2.60198ZM20.6619 11.2842V22.6277L22.9977 23.7934L25.3336 24.959V15.0743V5.1898L23.2445 2.82848C22.0956 1.52977 21.0445 0.348772 20.9087 0.203951C20.6685 -0.0523225 20.6619 0.243326 20.6619 11.2842ZM14.4497 1.26615C11.0601 2.26895 8.39923 3.85678 5.83663 6.40563C-0.518813 12.7272 -1.82127 22.3178 2.60639 30.1913C4.70409 33.9212 8.32983 37.1291 12.2863 38.7555L12.7868 38.9613V37.4447V35.9282L11.7788 35.3844C7.23132 32.9315 3.94929 28.372 3.02617 23.2248C2.76829 21.787 2.80366 18.6193 3.09317 17.2184C3.82676 13.6687 5.30193 10.9206 7.83103 8.39215C9.19141 7.0323 10.9334 5.73879 12.1862 5.15844C12.5437 4.99279 13.2053 4.36185 14.1883 3.2488C14.9959 2.33436 15.7667 1.43967 15.9012 1.26028C16.1435 0.9378 16.1427 0.934463 15.8345 0.941404C15.6632 0.945275 15.0401 1.09143 14.4497 1.26615ZM23.6807 1.09824C23.7456 1.21022 24.5247 2.10518 25.4121 3.08689C26.8228 4.64749 27.1667 4.95035 28.1483 5.49586C29.6701 6.34156 30.5144 6.99079 31.984 8.44514C36.5188 12.9333 38.0808 19.6236 36.0406 25.8217C34.7416 29.7684 31.6031 33.4851 27.9697 35.3792L26.9353 35.9184V37.4434V38.9682L27.3023 38.8292C27.5041 38.7527 28.131 38.4593 28.6952 38.1773C34.2421 35.4036 38.0386 30.4489 39.3747 24.2397C39.6115 23.1391 39.6661 22.437 39.6713 20.4218C39.6775 18.0091 39.6312 17.588 39.1275 15.486C37.8404 10.1141 33.6374 4.95288 28.571 2.52296C27.3256 1.92565 25.0242 1.12667 24.1479 0.987453C23.6459 0.907768 23.5796 0.923385 23.6807 1.09824ZM10.451 14.4387C9.27644 15.0311 8.28538 15.5627 8.24867 15.6201C8.21197 15.6774 8.19809 18.4929 8.21797 21.8765L8.25388 28.0287L10.5204 26.894L12.7868 25.7593V19.5534C12.7868 16.1402 12.7417 13.3508 12.6867 13.3546C12.6317 13.3585 11.6256 13.8464 10.451 14.4387ZM26.9353 19.5534V25.7593L29.2018 26.894L31.4682 28.0288L31.5043 21.8067L31.5402 15.5846L29.3059 14.4661C28.0772 13.8509 27.041 13.3476 27.0035 13.3476C26.966 13.3476 26.9353 16.1402 26.9353 19.5534ZM15.4897 26.2022L14.3886 26.7415V33.12V39.4985L14.8891 39.6261C15.1645 39.6963 15.5998 39.7932 15.8568 39.8414C16.1137 39.8897 16.429 39.9588 16.5575 39.9949C16.7779 40.057 16.7911 39.6531 16.7911 32.844C16.7911 28.8748 16.746 25.6353 16.691 25.6452C16.636 25.655 16.0953 25.9056 15.4897 26.2022ZM22.931 32.844C22.931 39.6531 22.9442 40.057 23.1646 39.9949C23.2931 39.9588 23.6084 39.8897 23.8653 39.8414C24.1223 39.7932 24.5583 39.6962 24.8344 39.6259L25.3361 39.4979L25.3015 33.1364L25.2668 26.775L24.199 26.2112C23.6117 25.9011 23.0861 25.643 23.0311 25.6373C22.9761 25.6319 22.931 28.8748 22.931 32.844Z" fill="#505ECE"></path> <path d="M18.6005 26.5229C18.6005 25.762 19.2173 25.1451 19.9783 25.1451V25.1451C20.7392 25.1451 21.3561 25.762 21.3561 26.5229V39.9566H18.6005V26.5229Z" fill="#FC892E"></path> <path d="M61.4018 17.92V21.85C60.5818 21.17 59.6418 20.83 58.5818 20.83C57.5818 20.83 56.7618 21.15 56.1218 21.79C55.4618 22.45 55.1318 23.29 55.1318 24.31C55.1318 25.27 55.4318 26.07 56.0318 26.71C56.6918 27.43 57.5618 27.79 58.6418 27.79C59.6618 27.79 60.5818 27.44 61.4018 26.74V30.64C60.4218 31.18 59.2818 31.45 57.9818 31.45C55.9018 31.45 54.1718 30.78 52.7918 29.44C51.3918 28.08 50.6918 26.38 50.6918 24.34C50.6918 22.22 51.4318 20.46 52.9118 19.06C54.2518 17.8 55.9518 17.17 58.0118 17.17C59.2118 17.17 60.3418 17.42 61.4018 17.92ZM64.2717 31V17.62H68.5917V19.72C69.0117 18.9 69.5717 18.28 70.2717 17.86C70.8717 17.48 71.6417 17.29 72.5817 17.29C73.0817 17.29 73.5517 17.36 73.9917 17.5L73.7517 21.55C73.1517 21.23 72.5017 21.07 71.8017 21.07C70.9217 21.07 70.2017 21.37 69.6417 21.97C68.9417 22.71 68.5917 23.91 68.5917 25.57V31H64.2717ZM79.2159 22.48H85.0659C84.9059 21.84 84.6159 21.32 84.1959 20.92C83.6559 20.42 82.9759 20.17 82.1559 20.17C81.2759 20.17 80.5459 20.46 79.9659 21.04C79.5659 21.46 79.3159 21.94 79.2159 22.48ZM89.0559 24.61V25.06H79.0659C79.0659 25.98 79.3359 26.74 79.8759 27.34C80.3959 27.9 81.1359 28.18 82.0959 28.18C82.8159 28.18 83.3959 28.05 83.8359 27.79C84.1759 27.61 84.4859 27.24 84.7659 26.68L88.8459 27.1C88.3859 28.56 87.5259 29.68 86.2659 30.46C85.1659 31.12 83.7559 31.45 82.0359 31.45C79.7559 31.45 77.9759 30.81 76.6959 29.53C75.3559 28.19 74.6859 26.47 74.6859 24.37C74.6859 22.25 75.3659 20.49 76.7259 19.09C78.0059 17.81 79.7159 17.17 81.8559 17.17C84.1159 17.17 85.8859 17.84 87.1659 19.18C88.4259 20.52 89.0559 22.33 89.0559 24.61ZM106.332 9.13V31H102.012V29.38C101.072 30.76 99.6621 31.45 97.7821 31.45C95.9021 31.45 94.3721 30.84 93.1921 29.62C91.7921 28.22 91.0921 26.43 91.0921 24.25C91.0921 22.07 91.7921 20.31 93.1921 18.97C94.4521 17.77 96.0021 17.17 97.8421 17.17C99.6621 17.17 101.052 17.82 102.012 19.12V9.13H106.332ZM98.8921 20.89C97.9721 20.89 97.2021 21.19 96.5821 21.79C95.8821 22.45 95.5321 23.3 95.5321 24.34C95.5321 25.32 95.8821 26.14 96.5821 26.8C97.2221 27.42 97.9721 27.73 98.8321 27.73C99.7921 27.73 100.612 27.4 101.292 26.74C101.952 26.12 102.282 25.32 102.282 24.34C102.282 23.38 101.962 22.56 101.322 21.88C100.682 21.22 99.8721 20.89 98.8921 20.89ZM110.099 17.62H114.419V31H110.099V17.62ZM110.459 13.72C109.979 13.22 109.739 12.62 109.739 11.92C109.739 11.22 109.979 10.63 110.459 10.15C110.959 9.65 111.559 9.4 112.259 9.4C112.959 9.4 113.549 9.65 114.029 10.15C114.529 10.63 114.779 11.22 114.779 11.92C114.779 12.62 114.529 13.22 114.029 13.72C113.549 14.2 112.959 14.44 112.259 14.44C111.559 14.44 110.959 14.2 110.459 13.72ZM125.2 21.1H122.53V31H118.21V21.1H116.71V17.62H118.21V13.3H122.53V17.62H125.2V21.1Z" fill="black"></path> <path d="M134.177 9.13H138.497V19.12C139.457 17.82 140.847 17.17 142.667 17.17C144.507 17.17 146.057 17.77 147.317 18.97C148.717 20.31 149.417 22.07 149.417 24.25C149.417 26.43 148.717 28.22 147.317 29.62C146.137 30.84 144.607 31.45 142.727 31.45C140.847 31.45 139.437 30.76 138.497 29.38V31H134.177V9.13ZM141.617 20.89C140.637 20.89 139.827 21.22 139.187 21.88C138.547 22.56 138.227 23.38 138.227 24.34C138.227 25.32 138.557 26.12 139.217 26.74C139.897 27.4 140.717 27.73 141.677 27.73C142.537 27.73 143.287 27.42 143.927 26.8C144.627 26.14 144.977 25.32 144.977 24.34C144.977 23.3 144.627 22.45 143.927 21.79C143.307 21.19 142.537 20.89 141.617 20.89ZM165.154 19.33C166.494 20.67 167.164 22.33 167.164 24.31C167.164 26.29 166.494 27.95 165.154 29.29C163.714 30.73 161.764 31.45 159.304 31.45C156.844 31.45 154.894 30.73 153.454 29.29C152.114 27.95 151.444 26.29 151.444 24.31C151.444 22.33 152.114 20.67 153.454 19.33C154.894 17.89 156.844 17.17 159.304 17.17C161.764 17.17 163.714 17.89 165.154 19.33ZM161.734 21.79C161.094 21.15 160.284 20.83 159.304 20.83C158.324 20.83 157.514 21.15 156.874 21.79C156.214 22.45 155.884 23.29 155.884 24.31C155.884 25.33 156.214 26.17 156.874 26.83C157.514 27.47 158.334 27.79 159.334 27.79C160.294 27.79 161.094 27.47 161.734 26.83C162.394 26.17 162.724 25.33 162.724 24.31C162.724 23.29 162.394 22.45 161.734 21.79ZM182.908 19.33C184.248 20.67 184.918 22.33 184.918 24.31C184.918 26.29 184.248 27.95 182.908 29.29C181.468 30.73 179.518 31.45 177.058 31.45C174.598 31.45 172.648 30.73 171.208 29.29C169.868 27.95 169.198 26.29 169.198 24.31C169.198 22.33 169.868 20.67 171.208 19.33C172.648 17.89 174.598 17.17 177.058 17.17C179.518 17.17 181.468 17.89 182.908 19.33ZM179.488 21.79C178.848 21.15 178.038 20.83 177.058 20.83C176.078 20.83 175.268 21.15 174.628 21.79C173.968 22.45 173.638 23.29 173.638 24.31C173.638 25.33 173.968 26.17 174.628 26.83C175.268 27.47 176.088 27.79 177.088 27.79C178.048 27.79 178.848 27.47 179.488 26.83C180.148 26.17 180.478 25.33 180.478 24.31C180.478 23.29 180.148 22.45 179.488 21.79ZM197.512 18.31L195.802 21.04C194.962 20.54 194.172 20.29 193.432 20.29C192.872 20.29 192.462 20.42 192.202 20.68C192.022 20.86 191.932 21.06 191.932 21.28C191.932 21.52 192.072 21.72 192.352 21.88C192.392 21.92 192.822 22.07 193.642 22.33L194.782 22.69C195.742 22.99 196.482 23.38 197.002 23.86C197.702 24.5 198.052 25.35 198.052 26.41C198.052 27.83 197.592 29 196.672 29.92C195.652 30.94 194.202 31.45 192.322 31.45C190.122 31.45 188.292 30.81 186.832 29.53L188.662 26.62C189.182 27.06 189.672 27.39 190.132 27.61C190.692 27.89 191.292 28.03 191.932 28.03C192.572 28.03 193.022 27.93 193.282 27.73C193.582 27.49 193.732 27.2 193.732 26.86C193.732 26.54 193.572 26.28 193.252 26.08C193.032 25.94 192.592 25.78 191.932 25.6L190.852 25.27C189.952 24.99 189.232 24.58 188.692 24.04C188.052 23.36 187.732 22.55 187.732 21.61C187.732 20.35 188.162 19.32 189.022 18.52C190.002 17.62 191.352 17.17 193.072 17.17C194.732 17.17 196.212 17.55 197.512 18.31ZM207.729 21.1H205.059V31H200.739V21.1H199.239V17.62H200.739V13.3H205.059V17.62H207.729V21.1ZM213.454 22.48H219.304C219.144 21.84 218.854 21.32 218.434 20.92C217.894 20.42 217.214 20.17 216.394 20.17C215.514 20.17 214.784 20.46 214.204 21.04C213.804 21.46 213.554 21.94 213.454 22.48ZM223.294 24.61V25.06H213.304C213.304 25.98 213.574 26.74 214.114 27.34C214.634 27.9 215.374 28.18 216.334 28.18C217.054 28.18 217.634 28.05 218.074 27.79C218.414 27.61 218.724 27.24 219.004 26.68L223.084 27.1C222.624 28.56 221.764 29.68 220.504 30.46C219.404 31.12 217.994 31.45 216.274 31.45C213.994 31.45 212.214 30.81 210.934 29.53C209.594 28.19 208.924 26.47 208.924 24.37C208.924 22.25 209.604 20.49 210.964 19.09C212.244 17.81 213.954 17.17 216.094 17.17C218.354 17.17 220.124 17.84 221.404 19.18C222.664 20.52 223.294 22.33 223.294 24.61ZM225.99 31V17.62H230.31V19.72C230.73 18.9 231.29 18.28 231.99 17.86C232.59 17.48 233.36 17.29 234.3 17.29C234.8 17.29 235.27 17.36 235.71 17.5L235.47 21.55C234.87 21.23 234.22 21.07 233.52 21.07C232.64 21.07 231.92 21.37 231.36 21.97C230.66 22.71 230.31 23.91 230.31 25.57V31H225.99Z" fill="#505ECE"></path> </svg> 